<?xml version="1.0" encoding="utf-8"?>
<!-- Generator: Adobe Illustrator 16.0.0, SVG Export Plug-In . SVG Version: 6.00 Build 0)  -->
<!DOCTYPE svg PUBLIC "-//W3C//DTD SVG 1.1//EN" "http://www.w3.org/Graphics/SVG/1.1/DTD/svg11.dtd">
<svg version="1.1" id="Capa_1" xmlns="http://www.w3.org/2000/svg" xmlns:xlink="http://www.w3.org/1999/xlink" x="0px" y="0px"
	 width="58px" height="48px" viewBox="0 0 58 48" enable-background="new 0 0 58 48" xml:space="preserve">
<g>
	<path id="path-1" fill="#FFFFFF" d="M18.161,26.399c0,0-0.66-0.062-0.66,0.454c0,2.914,2.24,4.99,5.759,4.99
		c2.612,0,3.728-0.61,5.305-1.756c0.369-0.268,0.763-0.518,1.062-0.202c0.207,0.216,2.979,2.696,2.979,2.696
		c0.348,0.315,0.253,0.691-0.119,0.994C32.116,33.88,27.972,37,23.209,37C16.98,37,11,34.373,11,24.479
		C11,16.503,15.662,12,22.501,12C29.848,12,34,16.973,34,23.679v1.696c0,0.691-0.579,1.024-1.057,1.024H18.161z M26.907,19.599
		c-0.708-1.452-2.175-2.535-4.406-2.535c-2.229,0-3.697,1.083-4.406,2.535c-0.405,0.892-0.56,1.549-0.61,2.626h10.033
		C27.465,21.148,27.312,20.49,26.907,19.599L26.907,19.599z"/>
</g>
<title>EA05CF93-ED27-40BD-868B-F2177C2E712B</title>
<desc>Created with sketchtool.</desc>
<g id="Esctuctura-pantallas">
	<g id="Esctuctura-pantallas-Mobile" transform="translate(-19.000000, -15.000000)">
		<g id="Group" transform="translate(20.000000, 16.000000)">
			<path id="Rectangle-3" fill="#002EFF" d="M7.879,46.121L48.9,41.92c1.621-0.166,2.92-1.416,3.148-3.029l4.084-28.813
				c0.275-1.938-1.074-3.733-3.012-4.008c-0.018-0.002-0.035-0.004-0.052-0.007L3.825-0.187C1.883-0.434,0.108,0.941-0.138,2.884
				C-0.172,3.155-0.175,3.43-0.146,3.702l4.139,39.265C4.197,44.909,5.936,46.32,7.879,46.121z"/>
			<g id="Group-12" transform="translate(10.000000, 11.000000)">
				<path id="Fill-1" fill="#FF3D00" d="M27.42,1.179c-0.43-0.272-1.104-0.227-1.491,0.093l-2.474,2.055
					C23.066,3.648,23.1,4.14,23.522,4.424c0,0,3.819,2.536,3.819,7.994c0,5.174-4.026,8.156-4.026,8.156
					c-0.405,0.3-0.423,0.809-0.034,1.132l2.454,2.021c0.388,0.323,1.062,0.362,1.496,0.101c0,0,5.769-3.557,5.769-11.392
					C33,4.656,27.42,1.179,27.42,1.179"/>
				<g id="Fill-4">
					<path id="path-1_1_" fill="#FFFFFF" d="M7.161,14.399c0,0-0.66-0.062-0.66,0.454c0,2.914,2.24,4.99,5.759,4.99
						c2.612,0,3.728-0.61,5.305-1.756c0.369-0.268,0.763-0.518,1.062-0.202c0.207,0.216,2.979,2.696,2.979,2.696
						c0.348,0.315,0.253,0.691-0.119,0.994C21.116,21.88,16.972,25,12.209,25C5.98,25,0,22.373,0,12.479C0,4.503,4.662,0,11.501,0
						C18.848,0,23,4.973,23,11.679v1.696c0,0.691-0.579,1.024-1.057,1.024H7.161z M15.907,7.599
						c-0.708-1.452-2.175-2.535-4.406-2.535c-2.229,0-3.697,1.083-4.406,2.535c-0.405,0.892-0.56,1.549-0.61,2.626h10.033
						C16.465,9.148,16.312,8.49,15.907,7.599L15.907,7.599z"/>
				</g>
			</g>
		</g>
	</g>
</g>
</svg>
